<svg xmlns:dc="http://purl.org/dc/elements/1.1/" xmlns:cc="http://creativecommons.org/ns#" xmlns:rdf="http://www.w3.org/1999/02/22-rdf-syntax-ns#" xmlns:svg="http://www.w3.org/2000/svg" xmlns="http://www.w3.org/2000/svg" xmlns:sodipodi="http://sodipodi.sourceforge.net/DTD/sodipodi-0.dtd" xmlns:inkscape="http://www.inkscape.org/namespaces/inkscape" version="1.1" x="0px" y="0px" viewBox="0 0 100 125"><g transform="translate(0,-952.36218)"><path style="opacity:1;color:#000000;fill:#000000;stroke:none;stroke-width:4;stroke-linecap:butt;stroke-linejoin:miter;marker:none;visibility:visible;display:inline;overflow:visible;enable-background:accumulate" d="M 35 8 C 33.892 8 33 8.892 33 10 L 33 16 C 33 17.108 33.892 18 35 18 L 38 18 L 38 36.03125 L 27 59.65625 C 30.334185 57.926762 33.901626 57 37 57 C 42.069996 57 46.10449 59.84015 49.75 62.34375 C 53.39551 64.84725 56.658921 67 60 67 C 64.383344 67 68.016809 64.800813 73.15625 59.96875 L 62 36.03125 L 62 18 L 65 18 C 66.108 18 67 17.108 67 16 L 67 10 C 67 8.892 66.108 8 65 8 L 35 8 z M 52 38 C 53.656854 38 55 39.343146 55 41 C 55 42.656854 53.656854 44 52 44 C 50.343146 44 49 42.656854 49 41 C 49 39.343146 50.343146 38 52 38 z M 43 47 C 44.656854 47 46 48.343146 46 50 C 46 51.656854 44.656854 53 43 53 C 41.343146 53 40 51.656854 40 50 C 40 48.343146 41.343146 47 43 47 z M 58 55 C 59.656854 55 61 56.343146 61 58 C 61 59.656854 59.656854 61 58 61 C 56.343146 61 55 59.656854 55 58 C 55 56.343146 56.343146 55 58 55 z M 37 61 C 33.219841 61 27.159055 63.433955 23.46875 67.25 L 18 79 C 16.764307 81.1945 16 83.1972 16 85 C 16 89.2681 18.574419 92 24 92 L 76 92 C 81.425581 92 84 89.2681 84 85 C 84 83.1972 83.235693 81.1945 82 79 L 74.90625 63.78125 C 69.873054 68.339374 65.399127 71 60 71 C 55.050643 71 51.103803 68.1214 47.46875 65.625 C 43.833697 63.1286 40.517318 61 37 61 z " transform="translate(0,952.36218)"/></g><text x="0" y="115" fill="#000000" font-size="5px" font-weight="bold" font-family="'Helvetica Neue', Helvetica, Arial-Unicode, Arial, Sans-serif">Created by Rockicon</text><text x="0" y="120" fill="#000000" font-size="5px" font-weight="bold" font-family="'Helvetica Neue', Helvetica, Arial-Unicode, Arial, Sans-serif">from the Noun Project</text></svg>